HIERARCHY
ROOT Hips
{
	OFFSET 0.0000 0.0000 0.0000
	CHANNELS 6 Xposition Yposition Zposition Zrotation Xrotation Yrotation
	JOINT Spine1
	{
		OFFSET -0.0137 5.0038 -0.0537
		CHANNELS 3 Zrotation Xrotation Yrotation
		JOINT Spine2
		{
			OFFSET -0.0000 7.1253 -0.0298
			CHANNELS 3 Zrotation Xrotation Yrotation
			JOINT Chest
			{
				OFFSET -0.0000 7.5501 -0.8160
				CHANNELS 3 Zrotation Xrotation Yrotation
				JOINT Neck1
				{
					OFFSET -0.1817 26.3113 -0.5533
					CHANNELS 3 Zrotation Xrotation Yrotation
					JOINT Neck2
					{
						OFFSET -0.0000 7.7094 2.3026
						CHANNELS 3 Zrotation Xrotation Yrotation
						JOINT Head
						{
							OFFSET -0.0000 6.1289 1.9537
							CHANNELS 3 Zrotation Xrotation Yrotation
							JOINT Jaw
							{
								OFFSET 0.0026 0.4756 3.0949
								CHANNELS 3 Zrotation Xrotation Yrotation
								End Site
								{
									OFFSET 0.0 1.0 0.0
								}
							}
							JOINT LeftEye
							{
								OFFSET 3.2064 5.3802 7.5869
								CHANNELS 3 Zrotation Xrotation Yrotation
								End Site
								{
									OFFSET 0.0 1.0 0.0
								}
							}
							JOINT RightEye
							{
								OFFSET -3.2224 5.3619 7.5582
								CHANNELS 3 Zrotation Xrotation Yrotation
								End Site
								{
									OFFSET 0.0 1.0 0.0
								}
							}
						}
					}
				}
				JOINT LeftShoulder
				{
					OFFSET 1.6217 23.2372 5.1134
					CHANNELS 3 Zrotation Xrotation Yrotation
					JOINT LeftArm
					{
						OFFSET 14.9198 0.0000 -5.5023
						CHANNELS 3 Zrotation Xrotation Yrotation
						JOINT LeftForeArm
						{
							OFFSET 28.7393 0.0000 -0.0026
							CHANNELS 3 Zrotation Xrotation Yrotation
							JOINT LeftHand
							{
								OFFSET 27.0940 -0.0000 0.0026
								CHANNELS 3 Zrotation Xrotation Yrotation
								JOINT LeftHandThumbEnd
								{
									OFFSET 12.2686 -3.2202 4.8331
									CHANNELS 3 Zrotation Xrotation Yrotation
									End Site
									{
										OFFSET 0.0 1.0 0.0
									}
								}
								JOINT LeftHandMiddleEnd
								{
									OFFSET 19.0120 -0.3129 -0.0340
									CHANNELS 3 Zrotation Xrotation Yrotation
									End Site
									{
										OFFSET 0.0 1.0 0.0
									}
								}
							}
						}
					}
				}
				JOINT RightShoulder
				{
					OFFSET -1.3801 23.1803 5.2142
					CHANNELS 3 Zrotation Xrotation Yrotation
					JOINT RightArm
					{
						OFFSET -15.0372 0.0000 -5.5456
						CHANNELS 3 Zrotation Xrotation Yrotation
						JOINT RightForeArm
						{
							OFFSET -28.7366 0.0000 -0.0026
							CHANNELS 3 Zrotation Xrotation Yrotation
							JOINT RightHand
							{
								OFFSET -27.1336 -0.0000 0.0026
								CHANNELS 3 Zrotation Xrotation Yrotation
								JOINT RightHandThumbEnd
								{
									OFFSET -12.2642 -3.2115 4.8040
									CHANNELS 3 Zrotation Xrotation Yrotation
									End Site
									{
										OFFSET 0.0 1.0 0.0
									}
								}
								JOINT RightHandMiddleEnd
								{
									OFFSET -19.0006 -0.3066 -0.0316
									CHANNELS 3 Zrotation Xrotation Yrotation
									End Site
									{
										OFFSET 0.0 1.0 0.0
									}
								}
							}
						}
					}
				}
			}
		}
	}
	JOINT LeftLeg
	{
		OFFSET 10.0432 -8.4345 2.5957
		CHANNELS 3 Zrotation Xrotation Yrotation
		JOINT LeftShin
		{
			OFFSET -0.0000 -43.2218 -0.8029
			CHANNELS 3 Zrotation Xrotation Yrotation
			JOINT LeftFoot
			{
				OFFSET 0.0000 -42.1551 -3.4815
				CHANNELS 3 Zrotation Xrotation Yrotation
				JOINT LeftToeBase
				{
					OFFSET 0.0000 -5.0595 13.2315
					CHANNELS 3 Zrotation Xrotation Yrotation
					End Site
					{
						OFFSET 0.0 1.0 0.0
					}
				}
			}
		}
	}
	JOINT RightLeg
	{
		OFFSET -10.0473 -8.2953 2.6203
		CHANNELS 3 Zrotation Xrotation Yrotation
		JOINT RightShin
		{
			OFFSET 0.0000 -43.3622 -0.8056
			CHANNELS 3 Zrotation Xrotation Yrotation
			JOINT RightFoot
			{
				OFFSET 0.0000 -42.1174 -3.4784
				CHANNELS 3 Zrotation Xrotation Yrotation
				JOINT RightToeBase
				{
					OFFSET -0.0000 -5.0796 13.2842
					CHANNELS 3 Zrotation Xrotation Yrotation
					End Site
					{
						OFFSET 0.0 1.0 0.0
					}
				}
			}
		}
	}
}
MOTION
Frames: 9
Frame Time: 0.033333
1.1997 91.1971 0.8871 4.0565 -4.3800 -0.8090 -1.7348 16.5963 -0.7938 -1.1147 3.6416 -0.2088 -1.6936 34.6124 -3.6024 17.2197 8.8648 -2.9064 -3.6216 -4.0147 -10.6661 7.3417 -9.8686 -16.2775 -0.2209 -0.1159 0.2112 0.5218 -10.5326 -3.5725 -0.9613 -10.5513 4.0500 10.5301 15.8120 -5.5978 -37.6138 -23.1032 -16.8162 0.9434 0.5053 -71.9563 9.7144 37.1857 30.2386 -15.6093 9.6685 13.4768 -59.2709 1.7145 1.4356 -6.7198 12.7898 15.2755 69.7829 -35.4078 -26.4600 -0.3906 0.1706 128.5009 26.2006 28.6194 -29.6023 15.1136 7.3463 -16.9904 49.0385 -3.8994 -6.2081 14.8648 -14.5829 -7.9872 -0.3113 33.5390 -0.9683 -20.0162 -12.6564 7.2052 1.6245 -1.3529 -2.2046 -26.8719 -19.9298 13.7147 0.7435 28.1405 1.9605 21.0016 -1.9789 3.5423 -1.4410 -1.0294 1.1560
1.0273 91.4215 1.1298 4.0400 -4.0903 -1.1643 -1.7242 16.3980 -0.8334 -1.1104 3.4805 -0.2140 -1.6027 34.0119 -3.5503 16.9295 9.0850 -2.8397 -3.5281 -3.9991 -10.5934 7.2945 -9.9216 -16.2102 -0.2166 -0.1139 0.2104 0.5330 -10.5331 -3.5809 -0.9630 -10.5526 4.0544 10.4997 15.8411 -5.3925 -38.5034 -22.5975 -15.5506 1.0365 0.5327 -72.8877 10.3988 37.4773 30.1808 -15.6846 9.6405 13.5375 -59.2927 1.7005 1.4531 -6.6010 12.5852 15.3138 68.8594 -34.7489 -26.6376 -0.4734 0.1783 128.6386 26.8648 28.6244 -29.0568 15.0907 7.3864 -16.9769 48.9820 -3.9103 -6.2078 14.9719 -14.1484 -7.7083 -0.2913 32.6053 -0.9413 -20.1352 -12.2723 7.4002 1.6259 -1.4717 -2.1946 -26.6470 -20.0681 13.6037 0.7273 27.6686 1.9506 20.9581 -1.7602 3.8827 -1.4477 -1.0980 1.1578
0.8329 91.6254 1.3334 3.9874 -3.7839 -1.5201 -1.6926 16.1909 -0.8967 -1.1111 3.3465 -0.2158 -1.4417 33.4407 -3.4812 16.7637 9.3968 -2.8474 -3.4256 -3.9909 -10.4721 7.1263 -9.9465 -16.0633 -0.2078 -0.1112 0.2020 0.5433 -10.5309 -3.5958 -0.9546 -10.5463 4.0497 10.6016 15.7874 -5.1617 -39.2024 -22.0920 -14.4084 1.1384 0.5098 -73.7782 11.1021 37.9436 30.2115 -15.8056 9.6174 13.5815 -59.3067 1.6767 1.4766 -6.4871 12.3221 15.3516 67.9365 -34.3251 -26.8791 -0.6644 0.2001 128.8467 27.4800 28.4461 -28.4514 15.0898 7.3893 -16.9514 48.8842 -3.9451 -6.2140 15.1380 -13.7610 -7.4636 -0.2608 31.7392 -0.9030 -20.2779 -11.9037 7.5625 1.6263 -1.5503 -2.1764 -26.3813 -20.2982 13.4160 0.7205 27.2815 1.9554 20.9395 -1.6065 4.2091 -1.4520 -1.0763 1.1501
0.6207 91.7835 1.5307 3.9341 -3.5153 -1.8454 -1.6463 16.0154 -0.9274 -1.0982 3.2111 -0.2666 -1.2548 32.9598 -3.4335 16.6872 9.7968 -2.8626 -3.3550 -3.9842 -10.3179 6.9122 -9.9707 -15.9149 -0.1972 -0.1068 0.1915 0.5522 -10.5247 -3.6115 -0.9413 -10.5423 4.0404 10.7543 15.6998 -4.9137 -39.7416 -21.7326 -13.3522 1.1818 0.4243 -74.6052 11.8947 38.4502 30.3730 -15.9237 9.5716 13.5753 -59.2851 1.6639 1.4694 -6.4208 12.0754 15.3974 67.1755 -34.2372 -27.3663 -0.8243 0.1702 129.1739 27.9129 28.2493 -27.7715 15.1120 7.3899 -16.9317 48.8280 -3.9486 -6.2091 15.3242 -13.3965 -7.2437 -0.2434 30.9723 -0.8722 -20.4540 -11.5852 7.6945 1.6262 -1.6125 -2.1675 -26.1151 -20.5907 13.2281 0.7108 27.0885 1.9527 20.8715 -1.5533 4.5660 -1.4547 -1.0375 1.1420
0.4141 91.9165 1.7268 3.8938 -3.2792 -2.1924 -1.6047 15.8795 -0.9425 -1.0818 3.0965 -0.3289 -1.0637 32.5251 -3.3857 16.6652 10.2467 -2.8743 -3.3032 -3.9727 -10.1608 6.6880 -9.9636 -15.7563 -0.1813 -0.1018 0.1749 0.5642 -10.5279 -3.6347 -0.9209 -10.5526 4.0254 10.9339 15.5719 -4.6790 -40.1435 -21.4880 -12.4605 1.2526 0.3382 -75.3183 12.7099 38.9740 30.6568 -16.0255 9.5070 13.5403 -59.2496 1.6719 1.4525 -6.4011 11.8440 15.4646 66.6485 -34.5067 -28.1129 -0.8568 0.0767 129.5317 28.0585 27.8970 -27.0441 15.1434 7.3594 -16.9111 48.7987 -3.9329 -6.2232 15.4921 -13.0604 -6.9960 -0.2323 30.3333 -0.8647 -20.6081 -11.3473 7.8048 1.6271 -1.6634 -2.1737 -25.8737 -20.9400 13.0943 0.7151 27.0956 1.9464 20.7600 -1.6014 4.9202 -1.4551 -0.9812 1.1354
0.1984 91.9995 1.8844 3.8760 -3.0549 -2.5668 -1.5736 15.7537 -0.9516 -1.0549 3.0208 -0.3864 -0.8706 32.1208 -3.3416 16.6837 10.6651 -2.8548 -3.2880 -3.9686 -10.0325 6.4615 -9.9233 -15.6101 -0.1697 -0.0978 0.1604 0.5686 -10.5238 -3.6532 -0.9005 -10.5558 4.0098 11.1028 15.3944 -4.4794 -40.4380 -21.3801 -11.7530 1.2745 0.3022 -75.8327 13.4215 39.4294 30.9770 -16.1121 9.4005 13.4436 -59.1891 1.7063 1.4098 -6.4417 11.6126 15.5473 66.3381 -35.0252 -28.9930 -0.7899 -0.0478 129.9019 28.0160 27.5030 -26.2254 15.1805 7.3125 -16.8773 48.7466 -3.9358 -6.2476 15.6475 -12.7630 -6.6932 -0.2147 29.7623 -0.8502 -20.7737 -11.1718 7.8826 1.6290 -1.7039 -2.1802 -25.6905 -21.3305 13.0366 0.7351 27.2482 1.9633 20.6516 -1.7256 5.2505 -1.4548 -0.9265 1.1398
-0.0122 92.0631 2.0508 3.8652 -2.8760 -2.9126 -1.5270 15.6865 -0.9478 -1.0125 2.9670 -0.4574 -0.6857 31.8115 -3.2786 16.6849 11.0134 -2.8180 -3.2941 -3.9638 -9.9101 6.2543 -9.8467 -15.4559 -0.1652 -0.0940 0.1514 0.5698 -10.5267 -3.6657 -0.8925 -10.5658 4.0037 11.2564 15.1884 -4.2798 -40.5571 -21.3964 -11.3598 1.3004 0.2433 -76.2362 14.0349 39.8892 31.3841 -16.2165 9.3258 13.3676 -59.2171 1.7623 1.3586 -6.5596 11.3750 15.5906 66.1712 -35.6647 -29.7736 -0.7461 -0.2118 130.2222 27.6923 26.9442 -25.5278 15.1773 7.2766 -16.8485 48.7313 -3.9027 -6.2592 15.7737 -12.5218 -6.3785 -0.2040 29.3307 -0.8380 -20.9147 -11.0654 7.9597 1.6318 -1.7161 -2.1796 -25.5088 -21.7283 13.0178 0.7487 27.5229 1.9594 20.5419 -1.9083 5.5707 -1.4527 -0.8720 1.1466
-0.1944 92.0925 2.1646 3.8477 -2.6964 -3.2075 -1.4577 15.6300 -0.9714 -0.9693 2.9501 -0.4982 -0.4740 31.5671 -3.2106 16.6244 11.2379 -2.7931 -3.2924 -3.9643 -9.7792 6.0502 -9.7727 -15.2731 -0.1642 -0.0918 0.1479 0.5682 -10.5192 -3.6696 -0.8884 -10.5658 4.0009 11.3931 14.9334 -4.0882 -40.5596 -21.4932 -11.2615 1.3341 0.2151 -76.5079 14.4810 40.3935 31.7594 -16.3075 9.2717 13.3076 -59.2719 1.7988 1.3147 -6.7672 11.1222 15.6407 66.0843 -36.2730 -30.4186 -0.7276 -0.3528 130.5067 27.1826 26.2751 -25.0134 15.1801 7.2438 -16.8159 48.7345 -3.8679 -6.2666 15.9054 -12.3732 -6.0964 -0.1844 28.9958 -0.8192 -21.0416 -10.9810 8.0127 1.6319 -1.7139 -2.1747 -25.3495 -22.1346 13.0077 0.7605 27.8258 1.9601 20.4026 -2.0792 5.8467 -1.4511 -0.8438 1.1567
-0.3578 92.1175 2.2464 3.8373 -2.5197 -3.4264 -1.3719 15.5971 -0.9927 -0.9282 2.9529 -0.5313 -0.2555 31.4062 -3.1360 16.5251 11.3434 -2.8029 -3.3075 -3.9652 -9.6556 5.8920 -9.7080 -15.0939 -0.1700 -0.0909 0.1535 0.5575 -10.5026 -3.6591 -0.8894 -10.5519 4.0044 11.5372 14.6993 -3.9336 -40.5208 -21.7725 -11.3493 1.2903 0.1592 -76.7103 14.8122 40.8730 32.1073 -16.3784 9.2246 13.2861 -59.2822 1.8025 1.3001 -7.0055 10.8961 15.7019 65.8912 -36.7815 -30.7133 -0.8049 -0.4642 130.6477 26.5311 25.6570 -24.7135 15.2192 7.2262 -16.7717 48.7871 -3.8234 -6.2563 16.0103 -12.3012 -5.8586 -0.1674 28.7206 -0.7990 -21.1664 -10.8920 8.0442 1.6329 -1.6828 -2.1765 -25.2399 -22.4956 13.0098 0.7650 28.0899 1.9610 20.2939 -2.2119 6.0145 -1.4498 -0.8427 1.1613
